<?xml version="1.0" standalone="no"?>
<!DOCTYPE svg PUBLIC "-//W3C//DTD SVG 20010904//EN"
 "http://www.w3.org/TR/2001/REC-SVG-20010904/DTD/svg10.dtd">
<svg version="1.0" xmlns="http://www.w3.org/2000/svg"
 width="533.000000pt" height="100.000000pt" viewBox="0 0 533.000000 100.000000"
 preserveAspectRatio="xMidYMid meet">

<g transform="translate(0.000000,100.000000) scale(0.100000,-0.100000)"
fill="#000000" stroke="none">
<path d="M1665 970 c-33 -10 -72 -19 -87 -19 -33 -1 -37 -17 -7 -26 11 -4 24
-18 30 -32 8 -22 14 -513 5 -513 -2 0 -25 10 -52 22 -103 45 -141 51 -353 54
-226 3 -231 4 -278 74 -29 41 -29 72 -2 128 46 93 183 110 256 31 30 -32 50
-85 59 -147 l7 -52 41 0 c22 0 52 -3 65 -7 24 -6 24 -5 17 47 -19 143 -120
220 -288 220 -48 0 -80 -6 -106 -19 -44 -22 -82 -84 -82 -132 0 -50 35 -113
75 -135 l34 -18 -57 -18 c-66 -20 -132 -72 -156 -122 -34 -72 -14 -181 43
-236 44 -42 97 -60 173 -60 97 0 161 33 208 106 27 44 40 47 40 12 0 -62 74
-118 155 -117 l40 0 -27 14 c-39 22 -48 67 -48 252 l0 163 33 -6 c222 -41 377
-188 377 -358 0 -36 5 -68 10 -71 6 -4 10 14 10 45 l0 52 33 -28 c107 -90 248
-84 348 16 71 71 93 137 93 285 1 134 -9 175 -56 255 -46 76 -108 113 -198
118 -83 5 -131 -10 -181 -55 l-39 -35 0 166 c0 109 -3 165 -10 161 -6 -4 -10
-76 -10 -183 -1 -149 -4 -186 -20 -232 l-19 -55 -1 238 c0 130 -3 236 -7 236
-5 -1 -35 -9 -68 -19z m412 -273 c48 -53 65 -120 70 -282 9 -268 -43 -391
-166 -389 -54 0 -126 37 -160 80 -20 25 -21 39 -21 277 l0 250 45 43 c51 50
91 65 155 60 35 -3 51 -11 77 -39z m-298 -319 c0 -193 -1 -201 -16 -163 -24
64 -28 200 -9 289 10 42 19 76 22 76 2 0 4 -91 3 -202z m-539 -36 c0 -118 -14
-181 -50 -232 -44 -62 -155 -89 -221 -54 -41 21 -69 84 -69 157 0 152 96 231
288 236 l52 1 0 -108z"/>
<path d="M4490 970 c-30 -11 -67 -19 -82 -19 -34 -1 -45 -17 -18 -26 34 -11
40 -47 39 -233 0 -161 -2 -173 -13 -135 -26 83 -82 150 -148 177 -52 22 -163
20 -213 -3 -92 -43 -147 -132 -167 -269 -20 -146 16 -295 91 -370 68 -68 171
-96 260 -72 60 16 154 109 173 171 l13 44 7 -69 c10 -105 45 -141 148 -153
l50 -6 0 492 c0 326 -3 490 -10 486 -6 -4 -10 -175 -10 -481 0 -325 -3 -474
-11 -474 -5 0 -17 16 -25 35 -11 28 -14 113 -14 480 0 245 -3 445 -7 444 -5
-1 -33 -9 -63 -19z m-201 -263 c52 -35 87 -82 113 -153 30 -80 32 -263 5 -342
-28 -78 -105 -158 -172 -177 -88 -26 -140 -3 -179 78 -35 72 -50 180 -43 317
8 167 47 274 111 301 39 16 122 5 165 -24z"/>
<path d="M27 935 c17 -7 36 -22 42 -34 7 -13 11 -154 11 -423 0 -424 0 -422
-45 -446 -15 -9 7 -11 97 -12 64 0 123 -3 132 -6 14 -5 16 17 16 214 0 207 1
221 19 227 10 3 29 1 42 -4 46 -17 71 -54 200 -293 l74 -138 93 0 c50 0 92 4
92 8 0 5 -12 19 -26 33 -34 31 -107 140 -169 251 -54 98 -115 163 -169 182
l-37 13 86 18 c91 19 135 42 169 88 17 24 21 43 21 110 -1 126 -42 181 -160
212 -83 21 -538 22 -488 0z m389 -10 c56 -16 105 -62 123 -114 25 -75 7 -174
-38 -215 -10 -9 -55 -32 -101 -51 -46 -19 -91 -42 -101 -51 -18 -17 -19 -11
-19 209 0 145 -4 227 -10 227 -6 0 -10 -86 -10 -239 0 -164 -3 -242 -11 -247
-6 -3 -17 -20 -25 -38 -12 -27 -13 4 -14 252 l0 282 78 0 c43 0 101 -7 128
-15z m-158 -795 c-3 -99 -3 -101 -23 -86 -18 13 -20 26 -20 158 0 122 3 150
20 188 l20 45 3 -103 c1 -56 1 -147 0 -202z"/>
<path d="M3246 773 c-28 -68 -143 -180 -231 -225 -38 -20 -108 -49 -155 -64
-73 -24 -102 -28 -205 -28 -140 -1 -172 11 -205 79 -25 52 -25 68 1 121 34 71
126 103 202 70 62 -26 100 -88 113 -184 4 -30 12 -52 18 -52 7 0 36 7 64 15
50 15 51 16 45 48 -23 123 -130 197 -285 197 -118 0 -188 -58 -188 -156 0 -48
35 -108 76 -130 l33 -18 -59 -19 c-69 -23 -137 -76 -156 -124 -27 -64 -11
-177 33 -225 35 -38 94 -61 173 -65 67 -4 81 -2 130 24 39 20 64 42 87 77 33
48 35 48 48 -7 12 -56 81 -97 160 -97 l30 1 -27 14 c-40 22 -48 67 -48 272 l0
181 94 46 c100 48 121 50 137 9 13 -35 12 -449 -2 -474 -6 -12 -24 -26 -41
-33 -26 -12 -12 -13 111 -13 141 0 141 0 112 18 -40 24 -44 52 -38 276 5 193
12 235 56 320 70 139 236 151 302 21 38 -74 49 -160 49 -378 0 -113 -5 -212
-10 -220 -5 -8 -24 -20 -42 -26 -28 -10 -8 -11 115 -11 132 0 145 1 118 13
-17 7 -36 25 -41 39 -6 15 -10 99 -10 189 0 236 -20 322 -97 407 -54 60 -121
89 -206 89 -74 0 -107 -12 -149 -57 -28 -30 -76 -125 -80 -158 -1 -11 -5 49
-8 132 l-5 153 -19 -47z m-486 -573 c-25 -100 -95 -159 -188 -160 -91 0 -141
61 -142 173 0 142 75 212 236 222 48 3 90 8 93 11 11 11 12 -202 1 -246z"/>
<path d="M4883 732 c-90 -32 -150 -90 -195 -188 -19 -41 -23 -66 -23 -159 0
-102 2 -115 31 -175 41 -87 83 -133 152 -167 50 -24 69 -28 147 -28 78 0 97 4
147 28 70 34 130 100 160 176 18 45 22 76 22 161 0 125 -22 192 -85 263 -82
94 -236 132 -356 89z m164 -3 c117 -44 178 -247 142 -468 -29 -182 -135 -275
-252 -223 -84 37 -133 141 -144 303 -17 261 103 445 254 388z"/>
<path d="M1610 212 c0 -124 -11 -166 -49 -187 -24 -13 -18 -14 77 -15 l102 0
0 88 c0 94 -5 107 -64 170 -63 68 -66 66 -66 -56z"/>
</g>
</svg>
